<?xml version="1.0" encoding="utf-8"?>
<svg viewBox="1.9239 2.9797 2.9789 2.2634" xmlns="http://www.w3.org/2000/svg">
  <defs>
    <style type="text/css">
   
    .fil0 {fill:none}
    .fil6 {fill:#424242}
    .fil1 {fill:#5D4037}
    .fil7 {fill:#B3E5FC}
    .fil4 {fill:#D32F2F}
    .fil5 {fill:#EF5350}
    .fil8 {fill:#FF9100}
    .fil9 {fill:#FFAB40}
    .fil3 {fill:#6D4C41;fill-rule:nonzero}
    .fil2 {fill:#8D6E63;fill-rule:nonzero}
   
  </style>
  </defs>
  <g id="_251230584">
    <path id="_251230824" class="fil4" d="M4.59129 3.55634l0.148902 -0.0409528c0.0132992,-0.00368504 0.0266142,-0.0055748 0.0396378,-0.0055748 0.0712008,0 0.122933,0.0544213 0.122933,0.129358l0 0.0888543c0,0.0875512 -0.0712008,0.158752 -0.158736,0.158752l-0.0170787 0 0.0253228 0.0615748 -0.16098 -0.392012z"/>
    <path id="_251230848" class="fil5" d="M4.59721 3.55691l-0.156496 -0.381307c-0.0443622,-0.10802 -0.17539,-0.19585 -0.292173,-0.19585l-1.46472 -7.87402e-006c-0.116768,0 -0.247811,0.0878386 -0.292157,0.195858l-0.156291 0.380732 -0.148902 -0.0409528c-0.0132992,-0.00368504 -0.0266142,-0.0055748 -0.0396378,-0.0055748 -0.0712008,0 -0.122933,0.0544213 -0.122933,0.129358l0 0.0888543c0,0.0875512 0.0712008,0.158752 0.158736,0.158752l0.0170787 0 -0.0253228 0.0615748c-0.0411732,0.100276 -0.0746614,0.27024 -0.0746614,0.378689l0 0.757398c0,0.0875394 0.0712047,0.158736 0.158665,0.158736l0.207354 0c0.0874843,0 0.158685,-0.0711969 0.158685,-0.158736l0 -0.189134 1.78343 0 0 0.189134c0,0.0875394 0.0712756,0.158736 0.158736,0.158736l0.207307 0c0.0875354,0 0.158736,-0.0711969 0.158736,-0.158736l0 -0.757398c0,-0.108449 -0.0335669,-0.278339 -0.0747402,-0.378689l-0.160701 -0.391437z"/>
    <path id="_251230248" class="fil4" d="M2.23537 3.55634l-0.148902 -0.0409528c-0.0132992,-0.00368504 -0.0266142,-0.0055748 -0.0396378,-0.0055748 -0.0712008,0 -0.122933,0.0544213 -0.122933,0.129358l0 0.0888543c0,0.0875512 0.0712008,0.158752 0.158736,0.158752l0.0170787 0 -0.0253228 0.0615748 0.16098 -0.392012z"/>
    <polygon id="_251229912" class="fil4" points="1.99973,4.70574 1.99973,5.08396 2.52444,5.08396 2.52444,4.8953 4.30787,4.8953 4.30787,5.08396 4.83265,5.08396 4.83265,4.70574 "/>
    <path id="_251230512" class="fil6" d="M1.99973 4.8953l0 0.189134c0,0.0875394 0.0712047,0.158736 0.158665,0.158736l0.207354 0c0.0874843,0 0.158685,-0.0711969 0.158685,-0.158736l0 -0.189134 -0.524705 0zm2.30814 0l0 0.189134c0,0.0875394 0.0712756,0.158736 0.158736,0.158736l0.207307 0c0.0875354,0 0.158736,-0.0711969 0.158736,-0.158736l0 -0.189134 -0.52478 0z"/>
    <path id="_251230152" class="fil7" d="M2.34912 3.80059l0.236811 -0.576657c0.0264882,-0.0646063 0.105354,-0.117484 0.175165,-0.117484l1.31019 -3.93701e-006c0.0698071,0 0.148677,0.0528071 0.175165,0.117488l0.236803 0.576657c0.0264724,0.064626 -0.00898031,0.117512 -0.0787913,0.117512l-1.97655 0c-0.0698268,-7.48031e-005 -0.105283,-0.0528858 -0.0787913,-0.117512z"/>
    <path id="_251230080" class="fil8" d="M2.87766 4.53006c0,0.034878 -0.0285787,0.0634567 -0.0634567,0.0634567l-0.449819 0c-0.034878,0 -0.0634567,-0.0285787 -0.0634567,-0.0634567l0 -0.215827c0,-0.0349528 0.0285787,-0.0635315 0.0634567,-0.0635315l0.449819 0c0.034878,0 0.0634567,0.0285787 0.0634567,0.0635315l0 0.215827z"/>
    <path id="_251230176" class="fil9" d="M2.87766 4.53302c0,0.0332559 -0.0277362,0.0605039 -0.0615866,0.0605039l-0.436551 0c-0.0338465,0 -0.0615827,-0.027248 -0.0615827,-0.0605039l0 -0.20578c0,-0.0333268 0.0277362,-0.0605748 0.0615827,-0.0605748l0.436551 0c0.0338504,0 0.0615866,0.027248 0.0615866,0.0605748l0 0.20578z"/>
    <path id="_251230128" class="fil8" d="M3.95044 4.53006c0,0.034878 0.0285787,0.0634567 0.0634567,0.0634567l0.449819 0c0.034878,0 0.0634567,-0.0285787 0.0634567,-0.0634567l0 -0.215827c0,-0.0349528 -0.0285787,-0.0635315 -0.0634567,-0.0635315l-0.449819 0c-0.034878,0 -0.0634567,0.0285787 -0.0634567,0.0635315l0 0.215827z"/>
    <path id="_251230368" class="fil9" d="M3.95044 4.53302c0,0.0332559 0.0277362,0.0605039 0.0615866,0.0605039l0.436551 0c0.0338465,0 0.0615827,-0.027248 0.0615827,-0.0605039l0 -0.20578c0,-0.0333268 -0.0277362,-0.0605748 -0.0615827,-0.0605748l-0.436551 0c-0.0338504,0 -0.0615866,0.027248 -0.0615866,0.0605748l0 0.20578z"/>
  </g>
</svg>